<?xml version="1.0" encoding="UTF-8"?>
<svg width="151px" height="50px" viewBox="0 0 151 50" version="1.1" xmlns="http://www.w3.org/2000/svg" xmlns:xlink="http://www.w3.org/1999/xlink">
    <!-- Generator: Sketch 45.1 (43504) - http://www.bohemiancoding.com/sketch -->
    <title>Group</title>
    <desc>Created with Sketch.</desc>
    <defs>
        <polygon id="path-1" points="36.5472 0.855 0.0002 0.855 0.0002 49.9997 36.5472 49.9997 36.5472 0.855"></polygon>
        <polygon id="path-3" points="34.098 0.855 0.926 0.855 0.926 49.9998 34.098 49.9998"></polygon>
    </defs>
    <g id="Page-1" stroke="none" stroke-width="1" fill="none" fill-rule="evenodd">
        <g id="Artboard" transform="translate(-24.000000, -28.000000)">
            <g id="Group" transform="translate(24.000000, 27.000000)">
                <g id="Group-3" transform="translate(0.000000, 0.145000)">
                    <mask id="mask-2" fill="white">
                        <use xlink:href="#path-1"></use>
                    </mask>
                    <g id="Clip-2"></g>
                    <path d="M9.7622,15.1357 L12.1252,24.9797 C12.2342,25.4877 12.3442,25.9917 12.4532,26.4997 C12.5592,27.0067 12.6602,27.5277 12.7582,28.0577 C12.8402,27.6667 12.9302,27.2567 13.0312,26.8237 C13.1252,26.3947 13.2732,25.7807 13.4732,24.9797 L16.0622,15.1357 L20.5902,15.1357 L23.1762,24.9207 C23.2972,25.3667 23.4102,25.8237 23.5122,26.2997 C23.6132,26.7817 23.7192,27.3317 23.8362,27.9457 C23.9732,27.2177 24.0942,26.6167 24.1952,26.1397 C24.2932,25.6707 24.3912,25.2647 24.4842,24.9207 L26.9022,15.1357 L32.5702,15.1357 L26.7502,35.7217 L21.5472,35.7217 L19.0002,26.9327 C18.9062,26.6247 18.7502,26.0237 18.5352,25.1207 C18.4382,24.7217 18.3632,24.4057 18.3122,24.1747 C18.2622,24.3747 18.1952,24.6517 18.1132,25.0067 C17.8952,25.9167 17.7302,26.5577 17.6212,26.9327 L15.1172,35.7217 L9.9022,35.7217 L4.0942,15.1357 L9.7622,15.1357 Z M0.0002,49.9997 L36.5472,43.5497 L36.5472,7.3037 L0.0002,0.8547 L0.0002,49.9997 Z" id="Fill-1" fill="#1A1919" mask="url(#mask-2)"></path>
                </g>
                <g id="Group-6" transform="translate(39.000000, 0.145000)">
                    <mask id="mask-4" fill="white">
                        <use xlink:href="#path-3"></use>
                    </mask>
                    <g id="Clip-5"></g>
                    <path d="M10.355,21.1318 C10.867,19.8468 11.637,18.6748 12.672,17.6208 C13.641,16.6208 14.742,15.8708 15.969,15.3748 C17.191,14.8778 18.551,14.6318 20.055,14.6278 C20.949,14.6318 21.84,14.7378 22.723,14.9528 C23.602,15.1668 24.488,15.4918 25.383,15.9208 L25.383,22.0498 C24.613,21.2028 23.848,20.5778 23.082,20.1748 C22.316,19.7808 21.496,19.5818 20.629,19.5778 C19.012,19.5818 17.707,20.1318 16.711,21.2298 C15.711,22.3348 15.211,23.7728 15.215,25.5388 C15.211,27.1948 15.723,28.5628 16.742,29.6488 C17.758,30.7348 19.051,31.2778 20.629,31.2778 C21.496,31.2778 22.316,31.0778 23.082,30.6788 C23.848,30.2808 24.613,29.6528 25.383,28.7888 L25.383,34.9328 C24.488,35.3668 23.602,35.6878 22.723,35.9028 C21.84,36.1128 20.949,36.2218 20.055,36.2268 C18.926,36.2218 17.887,36.0888 16.938,35.8238 C15.984,35.5578 15.113,35.1558 14.316,34.6098 C12.777,33.5818 11.605,32.2808 10.801,30.7138 C9.992,29.1528 9.586,27.3898 9.59,25.4248 C9.586,23.8548 9.844,22.4248 10.355,21.1318 L10.355,21.1318 Z M0.926,43.8558 L34.098,49.9998 L34.098,0.8548 L0.926,6.9998 L0.926,43.8558 Z" id="Fill-4" fill="#1A1919" mask="url(#mask-4)"></path>
                </g>
                <path d="M86.5664,15.2768 L92.2034,15.2768 C94.5274,15.2808 96.1524,15.3548 97.0744,15.5038 C97.9964,15.6558 98.7894,15.9138 99.4614,16.2728 C100.2144,16.6988 100.7934,17.2618 101.1954,17.9688 C101.5894,18.6798 101.7894,19.4998 101.7934,20.4218 C101.7894,21.5978 101.4924,22.5268 100.8984,23.2148 C100.3004,23.9058 99.3514,24.4298 98.0544,24.7808 C99.5114,24.8978 100.6564,25.4098 101.4844,26.3198 C102.3084,27.2378 102.7224,28.4618 102.7224,29.9838 C102.7224,31.0868 102.4884,32.0508 102.0274,32.8828 C101.5584,33.7188 100.8944,34.3668 100.0354,34.8238 C99.3284,35.2028 98.4614,35.4688 97.4334,35.6258 C96.3984,35.7848 94.7114,35.8628 92.3714,35.8628 L86.5664,35.8628 L86.5664,15.2768 Z M76.7854,50.1448 L78.3084,50.1448 L110.2614,43.6948 L110.2614,7.1448 L76.7854,1.3088 L76.7854,50.1448 Z" id="Fill-7" fill="#1A1919"></path>
                <path d="M96.5625,31.1596 C97.1135,30.8276 97.3905,30.2726 97.3945,29.4916 C97.3905,28.6336 97.1365,28.0306 96.6325,27.6866 C96.1245,27.3476 95.1875,27.1766 93.8205,27.1726 L91.7695,27.1726 L91.7695,31.6596 L93.7385,31.6596 C95.0665,31.6646 96.0075,31.4966 96.5625,31.1596" id="Fill-9" fill="#1A1919"></path>
                <path d="M95.7461,23.0469 C96.2581,22.7459 96.5161,22.2189 96.5191,21.4649 C96.5161,20.6909 96.2771,20.1449 95.7971,19.8279 C95.3121,19.5159 94.3711,19.3589 92.9761,19.3549 L91.7691,19.3549 L91.7691,23.5039 L92.8941,23.5039 C94.2771,23.5079 95.2261,23.3549 95.7461,23.0469" id="Fill-11" fill="#1A1919"></path>
                <path d="M142.0508,35.855 L136.6638,35.855 L128.8908,25.223 C128.7268,25.012 128.4768,24.578 128.1368,23.926 C127.7928,23.273 127.4178,22.508 127.0198,21.625 C127.1288,22.488 127.2108,23.254 127.2658,23.918 C127.3118,24.586 127.3398,25.176 127.3438,25.687 L127.3438,35.855 L121.9298,35.855 L121.9298,15.27 L127.3438,15.27 L135.1168,25.855 C135.2658,26.074 135.5118,26.508 135.8558,27.16 C136.1958,27.812 136.5738,28.59 136.9878,29.484 C136.8748,28.637 136.7928,27.876 136.7418,27.208 C136.6888,26.543 136.6598,25.953 136.6638,25.434 L136.6638,15.27 L142.0508,15.27 L142.0508,35.855 Z M113.6408,7.449 L113.6408,43.695 L150.4998,50.145 L150.4998,1 L113.6408,7.449 Z" id="Fill-13" fill="#1A1919"></path>
            </g>
        </g>
    </g>
</svg>